<svg xmlns="http://www.w3.org/2000/svg" viewBox="0 0 1120 311.31"><defs><style>.cls-1{fill:#242447;}.cls-2{fill:#576dbc;}</style></defs><g id="Calque_2" data-name="Calque 2"><g id="Calque_1-2" data-name="Calque 1"><path class="cls-1" d="M102.71,0,75.26,125.86h-.67L46.8,0H.28V234.31H33.75V71.63h.67L63.88,200.84H85L114.42,71.63h.67V234.31h35.48V0Z"/><path class="cls-1" d="M224.21,131.88H276.1V99.49l-87.37,31.94V234.31h99.75v-32.8H224.21ZM188.73,0V99.08h35.48V32.8h64.27V0Z"/><path class="cls-1" d="M413.33,15.23Q398.27,0,369.48,0H318.6V32.8h49.54q12.72,0,18.75,7t6,21.76V172.72q0,14.75-6,21.76t-18.75,7H354.08V70.83l-35.48,13V234.31h50.88q28.78,0,43.85-15.23t15.07-44V59.25Q428.4,30.47,413.33,15.23Z"/><path class="cls-1" d="M462.87,0V234.31h35.49V0Z"/><path class="cls-1" d="M609.48,0H564.29l-40.5,234.31h35.48l7.7-53.22h39.17l7.7,53.22H650ZM571.66,149l14.39-98.75h1L601.45,149Z"/><path class="cls-2" d="M710.91,200.84V0H675.43V234.31h94.73V200.84Z"/><path class="cls-2" d="M792.92,0V234.31H828.4V0Z"/><path class="cls-2" d="M948.57,0V139.58h-.67L906.05,0H866.56V234.31H900V79h.67l46.53,155.31H982V0Z"/><path class="cls-2" d="M1120,32.8V0H1020.2V234.31H1120v-32.8h-64.27V131.88h51.89V99.08h-51.89V32.8Z"/><path class="cls-1" d="M3.47,268.41l16.69,20.08,16.67-20.08h3.49V307H33.87V280.64L20.16,297.39,6.42,280.64V307H0V268.41Z"/><path class="cls-1" d="M84,268.41v6H64.18v8.47h15.4v5.91H64.18V301H84v6H57.73V268.41Z"/><path class="cls-1" d="M119.35,269.3a19.22,19.22,0,0,1,0,36.82,24.3,24.3,0,0,1-7.23.84h-12V268.41h12A23.08,23.08,0,0,1,119.35,269.3Zm-1,30.75a13.39,13.39,0,0,0,0-24.7,15.56,15.56,0,0,0-6.27-.94h-5.56V301h5.56A15.74,15.74,0,0,0,118.39,300.05Z"/><path class="cls-1" d="M148.62,268.41h6.45V307h-6.45Z"/><path class="cls-1" d="M196.83,299.81H178.52L175.76,307H169l15.51-38.55h6.37L206.37,307h-6.75Zm-16.05-5.89h13.79l-6.88-17.79Z"/><path class="cls-1" d="M223.78,268.41l16.69,20.08,16.67-20.08h3.49V307h-6.45V280.64l-13.71,16.75-13.73-16.75V307h-6.43V268.41Z"/><path class="cls-1" d="M302.37,299.81H284.06L281.29,307h-6.74l15.51-38.55h6.37L311.91,307h-6.75Zm-16.05-5.89h13.79l-6.88-17.79Z"/><path class="cls-1" d="M351.33,268.38v6H338.24V307h-6.45V274.41h-13v-6Z"/><path class="cls-1" d="M366.67,268.41h6.45V307h-6.45Z"/><path class="cls-1" d="M422.28,301.18l4.7,6.29-5.19,3.84-4.7-6.4a19.88,19.88,0,0,1-8.87,2c-11.21,0-19.57-8.39-19.57-19.28s8.36-19.27,19.57-19.27,19.59,8.44,19.59,19.27A19.07,19.07,0,0,1,422.28,301.18Zm-14.06-26.77c-7.72,0-13,5.77-13,13.27s5.27,13.28,13,13.28,13-5.75,13-13.28S416,274.41,408.22,274.41Z"/><path class="cls-1" d="M449.63,268.38V290a13.91,13.91,0,0,0,.54,4.14,9.38,9.38,0,0,0,18,0,13.91,13.91,0,0,0,.54-4.14V268.38h6.43V290a18.91,18.91,0,0,1-.76,5.62,15.88,15.88,0,0,1-30.45,0,18.24,18.24,0,0,1-.78-5.62V268.38Z"/><path class="cls-1" d="M518.59,268.41v6H498.73v8.47h15.4v5.91h-15.4V301h19.86v6H492.28V268.41Z"/><path class="cls-1" d="M559.11,307V268.41h3.47l24.11,26.88V268.41h6.45V307h-3.47l-24.14-26.91V307Z"/><path class="cls-1" d="M636.89,268.41v6H617v8.47h15.41v5.91H617V301h19.87v6H610.57V268.41Z"/><path class="cls-1" d="M659.11,268.38V290a13.91,13.91,0,0,0,.54,4.14,9.38,9.38,0,0,0,18,0,13.91,13.91,0,0,0,.54-4.14V268.38h6.42V290a18.93,18.93,0,0,1-.75,5.62,15.88,15.88,0,0,1-30.45,0,18.24,18.24,0,0,1-.78-5.62V268.38Z"/><path class="cls-1" d="M732,283.65a12.58,12.58,0,0,0-12.5-9.3c-7.61,0-13,5.75-13,13.33,0,7.34,5.32,13.31,13,13.31A12.64,12.64,0,0,0,732,291.53l6.13,1.91c-2.31,8.06-9.78,13.52-18.68,13.52-10.86,0-19.59-8.28-19.59-19.28s8.46-19.3,19.59-19.3c8.66,0,16.08,4.92,18.6,13.26Z"/><path class="cls-1" d="M785.53,268.41V307h-6.48V288.87H759.78V307h-6.42V268.41h6.42v14.44h19.27V268.41Z"/><path class="cls-1" d="M827.27,299.81H809L806.19,307h-6.74L815,268.41h6.38L836.81,307h-6.75Zm-16-5.89H825l-6.88-17.79Z"/><path class="cls-1" d="M876.23,268.38v6H863.14V307h-6.45V274.41h-13v-6Z"/><path class="cls-1" d="M917.89,268.41v6H898v8.47h15.4v5.91H898V301h19.87v6H891.57V268.41Z"/><path class="cls-1" d="M940.43,268.38v32.56h19.89v6H934V268.38Z"/><path class="cls-1" d="M991,307c-11.24,0-19.57-8.42-19.57-19.28s8.33-19.27,19.57-19.27,19.6,8.41,19.6,19.27S1002.22,307,991,307Zm0-32.58c-7.71,0-13,5.8-13,13.3s5.3,13.26,13,13.26,13-5.76,13-13.26S998.72,274.38,991,274.38Z"/><path class="cls-1" d="M1026.13,268.41h6.45V307h-6.45Z"/><path class="cls-1" d="M1052,295.48a17.2,17.2,0,0,0,12,5.46c4.38,0,8-2.23,8-5.65,0-4.22-5.49-5-11.24-6.18-6.34-1.32-12-3.58-12-9.95,0-6,4.81-10.78,13.2-10.78a21.43,21.43,0,0,1,13.84,5.27L1072,278.2a15.31,15.31,0,0,0-10.16-3.93c-3.79,0-6.83,1.69-6.83,4.38,0,3.07,3.55,3.87,9.33,4.92,6.07,1.05,14.06,3.09,14.06,11.75,0,6.64-6.08,11.64-14.25,11.64a23.22,23.22,0,0,1-16.08-6.91Z"/><path class="cls-1" d="M1120,268.41v6h-19.87v8.47h15.41v5.91h-15.41V301H1120v6h-26.32V268.41Z"/></g></g></svg>